# xmcd
#
# Track frame offsets:
#	150
#	20726
#	45028
#	66990
#	89895
#	108862
#	131191
#	148810
#	173234
#	194444
#	212775
#	226947
#	250248
#	269568
#	291916
#	317444
#	337934
#
# Disc length: 4790 seconds
#
# Revision: 0
# Processed by: cddbd v1.5.2PL0 Copyright (c) Steve Scherf et al.
# Submitted via: EasyCDDAExtractor 8.2.3.1
#
DISCID=0612b411
DTITLE=Various Artist - Blues-Rock Now!!! Box4 CD1
DYEAR=2007
DGENRE=Blues
TTITLE0=HANK DAVISON BAND - Face Of A Wanted Man
TTITLE1=PAT TRAVERS POWER TRIO - Ready For Love
TTITLE2=GOV'T MULE - Perfect Shelter
TTITLE3=INNES SIBUN - Sooner or later
TTITLE4=SKY HIGH - Rainbow Children
TTITLE5=STORM WARNING - Ballad of 64
TTITLE6=VARGAS BLUES BAND - Pretty Blue
TTITLE7=ROSE TATTOO - Creeper
TTITLE8=TONY C. and The TRUTH - No Pain
TTITLE9=JOE BONAMASSA - Pack It Up
TTITLE10=WILD T and SPIRIT - It Ain_t Where Yore From
TTITLE11=MICHAEL KATON - Fried Jalapenos
TTITLE12=RHINO BUCKET - Hey There
TTITLE13=VIVIAN CAMPBELL - I Ain't Superstitious
TTITLE14=The PHOENIX - Let It Go
TTITLE15=MARK SELBY - Reason Enough
TTITLE16=GIANFRANCO SEGATTO - Superstition
EXTD=
EXTT0=
EXTT1=
EXTT2=
EXTT3=
EXTT4=
EXTT5=
EXTT6=
EXTT7=
EXTT8=
EXTT9=
EXTT10=
EXTT11=
EXTT12=
EXTT13=
EXTT14=
EXTT15=
EXTT16=
PLAYORDER=
